<?xml version="1.0" standalone="no"?>
<!DOCTYPE svg PUBLIC "-//W3C//DTD SVG 20010904//EN"
 "http://www.w3.org/TR/2001/REC-SVG-20010904/DTD/svg10.dtd">
<svg version="1.0" xmlns="http://www.w3.org/2000/svg"
 width="88.000000pt" height="88.000000pt" viewBox="0 0 88.000000 88.000000"
 preserveAspectRatio="xMidYMid meet">

<g transform="translate(0.000000,88.000000) scale(0.100000,-0.100000)"
fill="#000000" stroke="none">
<path d="M0 440 l0 -440 440 0 440 0 0 440 0 440 -440 0 -440 0 0 -440z m432
263 c11 -10 18 -30 18 -51 l0 -35 23 21 c44 42 107 17 107 -41 0 -24 -14 -44
-63 -94 -35 -34 -69 -63 -75 -63 -18 0 -78 57 -69 66 4 5 11 4 15 -1 4 -6 15
-16 25 -24 16 -12 17 -9 17 40 l0 53 -60 -59 -61 -60 53 -5 c53 -5 53 -5 50
-37 -3 -31 -2 -33 28 -33 30 0 31 2 28 33 l-3 32 54 5 c53 5 53 5 32 24 -11
11 -21 24 -21 30 0 5 16 -5 34 -23 l35 -34 26 32 c31 36 69 41 85 10 17 -30
-12 -59 -58 -59 l-35 0 21 -23 c26 -27 28 -54 6 -85 -24 -35 -67 -29 -117 17
-23 22 -39 43 -35 47 4 4 28 -12 53 -35 49 -46 49 -45 76 -31 25 14 24 58 -2
89 l-20 24 -34 -33 c-38 -37 -49 -31 -13 7 l21 23 -40 0 c-37 0 -41 -3 -46
-29 -11 -53 -83 -53 -94 0 -5 26 -9 29 -46 29 l-41 0 59 -60 c51 -52 60 -58
63 -40 2 11 8 20 13 20 13 0 11 -34 -3 -48 -10 -10 -28 3 -84 59 l-73 72 -26
-31 c-31 -37 -69 -42 -85 -11 -17 30 12 59 58 59 l35 0 -21 23 c-61 64 20 144
89 88 34 -27 17 -37 -19 -11 -24 18 -33 20 -51 11 -27 -15 -27 -58 0 -90 l20
-24 72 71 c83 82 97 82 97 -2 l0 -50 51 49 c64 63 73 79 59 105 -14 26 -61 26
-85 0 -24 -26 -43 -11 -47 38 -2 29 -7 37 -22 37 -38 0 -27 -26 40 -95 83 -87
73 -93 -13 -8 -65 65 -78 98 -45 117 23 14 23 14 44 -6z m-42 -323 c0 -5 -4
-10 -10 -10 -5 0 -10 5 -10 10 0 6 5 10 10 10 6 0 10 -4 10 -10z m-40 -35 c0
-3 -9 -19 -21 -34 -17 -23 -19 -32 -10 -50 21 -38 61 -27 121 34 30 30 59 55
64 55 6 0 -19 -29 -54 -65 -68 -69 -97 -80 -132 -48 -22 20 -23 61 -2 91 14
20 34 30 34 17z m160 -142 c0 -33 -36 -50 -61 -27 -21 19 -26 73 -7 92 16 16
68 -33 68 -65z"/>
<path d="M644 475 l-29 -25 40 2 c32 2 40 7 40 22 0 29 -20 30 -51 1z"/>
<path d="M183 414 c-15 -39 34 -39 67 0 11 14 8 16 -24 16 -24 0 -39 -5 -43
-16z"/>
<path d="M452 225 c2 -32 7 -40 22 -40 29 0 30 20 1 51 l-25 29 2 -40z"/>
</g>
</svg>
