<?xml version="1.0" encoding="UTF-8"?>
<svg width="126px" height="27px" viewBox="0 0 126 27" version="1.1" xmlns="http://www.w3.org/2000/svg" xmlns:xlink="http://www.w3.org/1999/xlink">
    <title>Group 41</title>
    <defs>
        <filter id="filter-1">
            <feColorMatrix in="SourceGraphic" type="matrix" values="0 0 0 0 0.000000 0 0 0 0 0.000000 0 0 0 0 0.000000 0 0 0 1.000000 0"></feColorMatrix>
        </filter>
        <polygon id="path-2" points="0.0723064361 0.0502336897 8.12099189 0.0502336897 8.12099189 19.4781314 0.0723064361 19.4781314"></polygon>
        <polygon id="path-4" points="0.0444850734 0.0713928022 12.638806 0.0713928022 12.638806 23.6897973 0.0444850734 23.6897973"></polygon>
        <polygon id="path-6" points="0 0.0502498602 10.8240867 0.0502498602 10.8240867 19.4781476 0 19.4781476"></polygon>
        <polygon id="path-8" points="0.0723064361 0.0502336897 8.12099189 0.0502336897 8.12099189 19.4781314 0.0723064361 19.4781314"></polygon>
        <polygon id="path-10" points="0.0444850734 0.0713928022 12.638806 0.0713928022 12.638806 23.6897973 0.0444850734 23.6897973"></polygon>
    </defs>
    <g id="final" stroke="none" stroke-width="1" fill="none" fill-rule="evenodd">
        <g id="Light-Mode" transform="translate(-138.000000, -94.000000)">
            <g id="Group-41" transform="translate(138.740364, 94.005114)">
                <polygon id="Fill-1" fill="#190F1D" points="7.71566189 2.16188401 5.41209187 15.2895893 3.10844099 2.16188401 -1.61705101e-05 2.16188401 3.88551486 21.5897009 6.93858802 21.5897009 10.824119 2.16188401"></polygon>
                <polygon id="Fill-2" fill="#190F1D" points="15.569711 21.5897494 23.6184207 21.5897494 23.6184207 18.5368379 18.6227033 18.5368379 18.6227033 13.1525431 22.0641113 13.1525431 22.0641113 10.0995508 18.6227033 10.0995508 18.6227033 5.21484398 23.6184207 5.21484398 23.6184207 2.16193252 15.569711 2.16193252"></polygon>
                <g filter="url(#filter-1)" id="Group-40">
                    <g transform="translate(0.000000, 0.009460)">
                        <path d="M47.5975893,1.93041124 C46.3022506,1.93041124 45.228933,2.30985226 44.3781216,3.06833004 C43.4526833,3.99376834 42.9904493,5.20542466 42.9904493,6.70410754 L42.9904493,17.0286548 C42.9904493,18.5273377 43.4526833,19.7393983 44.3781216,20.6644323 C45.228933,21.4233144 46.3022506,21.8023511 47.5975893,21.8023511 C48.9297968,21.8023511 50.0026293,21.4233144 50.8170571,20.6644323 C51.7420911,19.7762671 52.2047294,18.5646108 52.2047294,17.0286548 L52.2047294,14.5307961 L49.1518179,14.5307961 L49.1518179,17.0286548 C49.1518179,17.7133951 49.0221304,18.1761142 48.7632406,18.4163272 C48.5225425,18.6383483 48.134046,18.7493588 47.5975893,18.7493588 C47.0794053,18.7493588 46.6998835,18.6383483 46.4596705,18.4163272 C46.1821037,18.1574373 46.0433608,17.6947182 46.0433608,17.0286548 L46.0433608,6.70410754 C46.0433608,6.03796338 46.1821037,5.57572934 46.4596705,5.31643521 C46.6998835,5.09441411 47.0794053,4.98340356 47.5975893,4.98340356 C48.134046,4.98340356 48.5225425,5.09441411 48.7632406,5.31643521 C49.0221304,5.5570524 49.1518179,6.01977155 49.1518179,6.70410754 L49.1518179,8.42489238 L52.2047294,8.42489238 L52.2047294,6.70410754 C52.2047294,5.1685559 51.7420911,3.95649531 50.8170571,3.06833004 C50.0026293,2.30985226 48.9297968,1.93041124 47.5975893,1.93041124" id="Fill-3" fill="#190F1D"></path>
                        <polygon id="Fill-5" fill="#190F1D" points="63.5561768 10.0901073 60.4477197 10.0901073 60.4477197 2.15240809 57.3947274 2.15240809 57.3947274 21.5803058 60.4477197 21.5803058 60.4477197 13.1430996 63.5561768 13.1430996 63.5561768 21.5803058 66.6091692 21.5803058 66.6091692 2.15240809 63.5561768 2.15240809"></polygon>
                        <path d="M75.6010724,15.4466453 L76.8222693,8.48038957 L78.0433854,15.4466453 L75.6010724,15.4466453 Z M75.2957732,2.15246469 L71.4101613,21.5802815 L74.5186184,21.5802815 L75.0737521,18.4996376 L78.5707057,18.4996376 L79.1258393,21.5802815 L82.2342965,21.5802815 L78.3486846,2.15246469 L75.2957732,2.15246469 Z" id="Fill-7" fill="#190F1D"></path>
                        <polygon id="Fill-9" fill="#190F1D" points="93.3911642 11.9773917 88.7284785 2.15243235 86.9522288 2.15243235 86.9522288 21.58033 90.0052211 21.58033 90.0052211 11.7276382 94.6679068 21.58033 96.4441565 21.58033 96.4441565 2.15243235 93.3911642 2.15243235"></polygon>
                        <path d="M106.240955,1.93041124 C104.945616,1.93041124 103.872299,2.30985226 103.021487,3.06833004 C102.096049,3.99376834 101.633815,5.20542466 101.633815,6.70410754 L101.633815,17.0286548 C101.633815,18.5273377 102.096049,19.7393983 103.021487,20.6644323 C103.872299,21.4233144 104.945616,21.8023511 106.240955,21.8023511 C107.573162,21.8023511 108.645995,21.4233144 109.460423,20.6644323 C110.385457,19.7762671 110.848095,18.5646108 110.848095,17.0286548 L110.848095,10.339885 L106.268687,10.339885 L106.268687,13.3928774 L107.795184,13.3928774 L107.795184,17.0286548 C107.795184,17.7133951 107.665496,18.1761142 107.406606,18.4163272 C107.165908,18.6383483 106.777412,18.7493588 106.240955,18.7493588 C105.722771,18.7493588 105.343249,18.6383483 105.103036,18.4163272 C104.825469,18.1574373 104.686726,17.6947182 104.686726,17.0286548 L104.686726,6.70410754 C104.686726,6.03796338 104.825469,5.57572934 105.103036,5.31643521 C105.343249,5.09441411 105.722771,4.98340356 106.240955,4.98340356 C106.777412,4.98340356 107.165908,5.09441411 107.406606,5.31643521 C107.665496,5.5570524 107.795184,6.01977155 107.795184,6.70410754 L107.795184,8.42489238 L110.848095,8.42489238 L110.848095,6.70410754 C110.848095,5.1685559 110.385457,3.95649531 109.460423,3.06833004 C108.645995,2.30985226 107.573162,1.93041124 106.240955,1.93041124" id="Fill-11" fill="#190F1D"></path>
                        <g id="Group-15" transform="translate(116.104263, 2.102166)">
                            <mask id="mask-3" fill="white">
                                <use xlink:href="#path-2"></use>
                            </mask>
                            <g id="Clip-14"></g>
                            <polygon id="Fill-13" fill="#190F1D" mask="url(#mask-3)" points="8.12101615 3.103226 8.12101615 0.0502336897 0.0723064361 0.0502336897 0.0723064361 19.4781314 8.12101615 19.4781314 8.12101615 16.4252199 3.12529875 16.4252199 3.12529875 11.0409252 6.56678757 11.0409252 6.56678757 7.98793285 3.12529875 7.98793285 3.12529875 3.103226"></polygon>
                        </g>
                        <g id="Group-18" transform="translate(27.247310, 0.000000)">
                            <mask id="mask-5" fill="white">
                                <use xlink:href="#path-4"></use>
                            </mask>
                            <g id="Clip-17"></g>
                            <polygon id="Fill-16" fill="#190F1D" mask="url(#mask-5)" points="12.638806 3.81457483 10.9827841 0.0713442907 7.23955356 1.72744709 8.40625586 2.17844261 6.2789444 7.89754778 4.14184978 2.15240809 0.894568791 2.15240809 4.50261386 11.8940894 1.3195298 20.4394763 0.0444850734 19.9465991 1.70050702 23.6898297 5.44373755 22.0337269 4.15802029 21.5367263 6.2789444 15.8351661 8.44369059 21.5803058 11.6908907 21.5803058 8.05519409 11.8940894 11.2683553 3.28482892"></polygon>
                        </g>
                        <g id="Group-21" transform="translate(0.000000, 2.102166)">
                            <mask id="mask-7" fill="white">
                                <use xlink:href="#path-6"></use>
                            </mask>
                            <g id="Clip-20"></g>
                            <polygon id="Fill-19" fill="#FFFFFF" mask="url(#mask-7)" points="5.41205952 13.1779551 3.1084895 0.0502498602 -4.85115304e-05 0.0502498602 3.88556337 19.4781476 6.93855568 19.4781476 10.8240867 0.0502498602 7.71562955 0.0502498602"></polygon>
                        </g>
                        <polygon id="Fill-22" fill="#FFFFFF" points="15.569711 21.5802896 23.6184207 21.5802896 23.6184207 18.5273782 18.6227033 18.5273782 18.6227033 13.1430834 22.0641113 13.1430834 22.0641113 10.0900911 18.6227033 10.0900911 18.6227033 5.20538423 23.6184207 5.20538423 23.6184207 2.15247277 15.569711 2.15247277"></polygon>
                        <path d="M47.5975893,1.93041124 C46.3022506,1.93041124 45.228933,2.30985226 44.3781216,3.06833004 C43.4526833,3.99376834 42.9904493,5.20542466 42.9904493,6.70410754 L42.9904493,17.0286548 C42.9904493,18.5273377 43.4526833,19.7393983 44.3781216,20.6644323 C45.228933,21.4233144 46.3022506,21.8023511 47.5975893,21.8023511 C48.9297968,21.8023511 50.0026293,21.4233144 50.8170571,20.6644323 C51.7420911,19.7762671 52.2047294,18.5646108 52.2047294,17.0286548 L52.2047294,14.5307961 L49.1518179,14.5307961 L49.1518179,17.0286548 C49.1518179,17.7133951 49.0221304,18.1761142 48.7632406,18.4163272 C48.5225425,18.6383483 48.134046,18.7493588 47.5975893,18.7493588 C47.0794053,18.7493588 46.6998835,18.6383483 46.4596705,18.4163272 C46.1821037,18.1574373 46.0433608,17.6947182 46.0433608,17.0286548 L46.0433608,6.70410754 C46.0433608,6.03796338 46.1821037,5.57572934 46.4596705,5.31643521 C46.6998835,5.09441411 47.0794053,4.98340356 47.5975893,4.98340356 C48.134046,4.98340356 48.5225425,5.09441411 48.7632406,5.31643521 C49.0221304,5.5570524 49.1518179,6.01977155 49.1518179,6.70410754 L49.1518179,8.42489238 L52.2047294,8.42489238 L52.2047294,6.70410754 C52.2047294,5.1685559 51.7420911,3.95649531 50.8170571,3.06833004 C50.0026293,2.30985226 48.9297968,1.93041124 47.5975893,1.93041124" id="Fill-24" fill="#FFFFFF"></path>
                        <polygon id="Fill-26" fill="#FFFFFF" points="63.5561768 10.0901073 60.4477197 10.0901073 60.4477197 2.15240809 57.3947274 2.15240809 57.3947274 21.5803058 60.4477197 21.5803058 60.4477197 13.1430996 63.5561768 13.1430996 63.5561768 21.5803058 66.6091692 21.5803058 66.6091692 2.15240809 63.5561768 2.15240809"></polygon>
                        <path d="M75.6010724,15.4466453 L76.8222693,8.48038957 L78.0433854,15.4466453 L75.6010724,15.4466453 Z M75.2957732,2.15246469 L71.4101613,21.5802815 L74.5186184,21.5802815 L75.0737521,18.4996376 L78.5707057,18.4996376 L79.1258393,21.5802815 L82.2342965,21.5802815 L78.3486846,2.15246469 L75.2957732,2.15246469 Z" id="Fill-28" fill="#FFFFFF"></path>
                        <polygon id="Fill-30" fill="#FFFFFF" points="93.3911642 11.9773917 88.7284785 2.15243235 86.9522288 2.15243235 86.9522288 21.58033 90.0052211 21.58033 90.0052211 11.7276382 94.6679068 21.58033 96.4441565 21.58033 96.4441565 2.15243235 93.3911642 2.15243235"></polygon>
                        <path d="M106.240955,1.93041124 C104.945616,1.93041124 103.872299,2.30985226 103.021487,3.06833004 C102.096049,3.99376834 101.633815,5.20542466 101.633815,6.70410754 L101.633815,17.0286548 C101.633815,18.5273377 102.096049,19.7393983 103.021487,20.6644323 C103.872299,21.4233144 104.945616,21.8023511 106.240955,21.8023511 C107.573162,21.8023511 108.645995,21.4233144 109.460423,20.6644323 C110.385457,19.7762671 110.848095,18.5646108 110.848095,17.0286548 L110.848095,10.339885 L106.268687,10.339885 L106.268687,13.3928774 L107.795184,13.3928774 L107.795184,17.0286548 C107.795184,17.7133951 107.665496,18.1761142 107.406606,18.4163272 C107.165908,18.6383483 106.777412,18.7493588 106.240955,18.7493588 C105.722771,18.7493588 105.343249,18.6383483 105.103036,18.4163272 C104.825469,18.1574373 104.686726,17.6947182 104.686726,17.0286548 L104.686726,6.70410754 C104.686726,6.03796338 104.825469,5.57572934 105.103036,5.31643521 C105.343249,5.09441411 105.722771,4.98340356 106.240955,4.98340356 C106.777412,4.98340356 107.165908,5.09441411 107.406606,5.31643521 C107.665496,5.5570524 107.795184,6.01977155 107.795184,6.70410754 L107.795184,8.42489238 L110.848095,8.42489238 L110.848095,6.70410754 C110.848095,5.1685559 110.385457,3.95649531 109.460423,3.06833004 C108.645995,2.30985226 107.573162,1.93041124 106.240955,1.93041124" id="Fill-32" fill="#FFFFFF"></path>
                        <g id="Group-36" transform="translate(116.104263, 2.102166)">
                            <mask id="mask-9" fill="white">
                                <use xlink:href="#path-8"></use>
                            </mask>
                            <g id="Clip-35"></g>
                            <polygon id="Fill-34" fill="#FFFFFF" mask="url(#mask-9)" points="8.12101615 3.103226 8.12101615 0.0502336897 0.0723064361 0.0502336897 0.0723064361 19.4781314 8.12101615 19.4781314 8.12101615 16.4252199 3.12529875 16.4252199 3.12529875 11.0409252 6.56678757 11.0409252 6.56678757 7.98793285 3.12529875 7.98793285 3.12529875 3.103226"></polygon>
                        </g>
                        <g id="Group-39" transform="translate(27.247310, 0.000000)">
                            <mask id="mask-11" fill="white">
                                <use xlink:href="#path-10"></use>
                            </mask>
                            <g id="Clip-38"></g>
                            <polygon id="Fill-37" fill="#FFFFFF" mask="url(#mask-11)" points="12.638806 3.81457483 10.9827841 0.0713442907 7.23955356 1.72744709 8.40625586 2.17844261 6.2789444 7.89754778 4.14184978 2.15240809 0.894568791 2.15240809 4.50261386 11.8940894 1.3195298 20.4394763 0.0444850734 19.9465991 1.70050702 23.6898297 5.44373755 22.0337269 4.15802029 21.5367263 6.2789444 15.8351661 8.44369059 21.5803058 11.6908907 21.5803058 8.05519409 11.8940894 11.2683553 3.28482892"></polygon>
                        </g>
                    </g>
                </g>
            </g>
        </g>
    </g>
</svg>